<svg viewBox="0 0 1250 1250" width="100%" height="100%" xmlns="http://www.w3.org/2000/svg" fill-rule="evenodd"
    clip-rule="evenodd" stroke-linejoin="round" stroke-miterlimit="2">
    <path fill="none" d="M0 0h1250v1250H0z" />
    <clipPath id="prefix__a">
        <path d="M0 0h1250v1250H0z" />
    </clipPath>
    <g clip-path="url(#prefix__a)" fill="#e5e4e7" fill-rule="nonzero">
        <path
            d="M226.661 3.839c-39.817 6.601-82.616 24.7-113.491 47.696-20.867 15.757-56.213 52.168-68.989 71.758C.105 189.727-11.607 273.834 11.816 354.96c19.589 67.924 72.822 129.461 140.533 162.891 27.681 13.627 46.206 19.589 77.719 24.7 21.08 3.406 59.833 4.258 71.97 1.49l7.24-1.703-45.993-60.685c-44.715-59.195-46.418-60.898-60.898-69.202-30.874-17.673-57.49-43.864-70.479-69.415-20.654-41.096-19.59-97.735 2.342-140.108 21.719-41.734 61.537-72.183 107.317-82.191 24.273-5.323 60.259-3.406 82.616 4.259 36.624 12.563 68.989 41.734 89.856 81.126 5.324 9.795 12.563 15.97 65.37 56.001 32.578 24.699 60.259 44.928 61.323 44.928 1.917 0 2.555-3.194 5.111-25.552 1.703-12.989-2.556-51.316-8.092-74.312-12.35-50.89-33.856-88.153-73.886-128.184-40.883-40.882-90.069-66.221-146.922-75.377-24.061-3.832-66.859-3.832-90.282.213z" />
        <path
            d="M245.612 200.373c-20.228 6.814-32.365 17.673-43.437 38.54-4.472 8.304-5.111 12.35-5.111 31.94 0 19.589.639 23.848 5.536 34.068 10.221 21.719 23.423 33.643 48.122 42.586l13.202 4.685 62.814 83.468 63.027 83.468v212.717l-63.453 83.894-63.24 83.894-12.988 4.685c-24.487 8.73-37.476 19.802-47.484 41.521-4.897 10.22-5.536 14.479-5.536 34.068 0 19.59.639 23.636 5.323 33.004 22.784 45.354 84.746 56.001 123.287 21.293 8.73-7.878 23.635-34.281 23.635-41.734 0-2.555 27.255-24.487 84.746-67.924l84.533-63.879h212.929l84.746 64.092c57.065 43.011 84.533 65.156 84.533 67.711 0 7.453 15.118 33.856 23.635 41.734 38.54 34.708 100.503 24.061 123.286-21.293 4.685-9.368 5.323-13.414 5.323-33.004 0-20.015-.638-23.635-5.962-35.133-10.007-21.293-25.338-34.707-47.909-41.521l-12.137-3.62-63.24-83.894-63.453-83.894V519.128l63.027-83.681c55.362-73.248 64.092-83.894 70.906-86.023 25.977-8.518 43.012-22.571 53.232-44.29 4.898-10.433 5.536-14.479 5.536-34.281 0-20.442-.638-23.423-5.962-33.643-7.878-14.905-20.654-27.255-35.346-34.282-10.434-4.897-14.692-5.536-33.217-5.536-19.377 0-22.57.639-35.133 6.601-7.666 3.62-16.396 9.156-19.59 12.137-8.943 8.304-18.099 24.061-21.293 35.985l-2.555 10.859-84.32 63.453-84.107 63.666H518.588l-84.533-63.879c-57.491-43.437-84.746-65.369-84.746-67.924 0-2.129-3.407-10.647-7.666-18.951-7.452-15.118-18.737-27.042-31.726-33.856-17.886-9.369-45.567-11.711-64.305-5.11z" />
        <path
            d="M931.458 3.839c-62.176 10.434-116.473 41.096-159.697 90.069-24.913 28.32-40.031 53.871-52.594 88.579-10.646 30.236-17.034 78.358-14.479 110.297l1.277 16.609 61.537-45.78c57.917-43.012 61.962-46.631 68.137-58.13 23.423-43.437 62.176-75.59 104.549-86.875 18.95-5.11 53.232-4.684 74.525.852 43.651 11.498 82.404 42.373 101.354 80.7 11.499 23.635 14.905 37.476 16.183 66.434.852 22.571.426 29.384-3.407 44.502-10.859 43.012-38.114 77.294-80.913 101.355-14.905 8.304-15.97 9.581-61.111 69.202l-45.992 60.685 7.239 1.703c12.137 2.768 50.89 1.916 71.97-1.49 29.597-4.898 49.4-10.86 73.674-22.358 26.616-12.776 41.095-22.358 65.795-44.289C1218.061 423.949 1250 352.83 1250 273.621c0-53.871-15.331-106.465-43.863-149.903-12.989-19.802-47.91-56.213-69.202-72.183-31.727-23.635-73.887-41.095-115.195-47.909-24.061-3.832-66.86-3.832-90.282.213zM952.325 703.525c-7.453 1.278-10.647 2.768-9.795 4.472.852 1.49 21.932 29.81 46.844 63.24 44.29 59.407 45.567 60.897 58.769 67.498 27.894 14.479 58.13 44.928 71.118 71.757 11.073 22.784 14.48 41.735 12.989 72.396-1.278 28.107-4.684 42.16-16.183 64.944-25.338 50.89-82.616 85.81-140.746 85.81-58.343 0-104.974-29.171-137.339-85.597-8.305-14.479-9.795-15.757-70.267-60.685l-61.75-45.993-1.277 16.609c-2.555 30.236 2.555 72.822 12.137 103.27 17.886 56.214 51.742 101.994 104.335 140.534 44.715 32.578 106.891 50.464 166.937 47.909 53.232-2.129 98.586-16.821 142.237-45.78 15.756-10.433 55.361-48.548 68.563-66.221 54.084-72.183 66.221-177.157 30.875-265.523-27.468-68.137-85.811-126.267-152.884-152.244-39.392-15.118-92.837-22.145-124.563-16.396zM251.361 705.229c-61.749 5.536-110.084 25.764-155.864 64.73-42.799 36.624-73.248 85.172-87.301 139.043-14.053 54.936-9.582 122.008 11.711 173.112 18.312 44.076 43.863 77.08 86.662 111.787 66.647 54.085 167.576 70.906 253.173 42.373 38.328-12.775 64.944-28.532 99.012-59.194 54.723-48.974 86.024-119.666 86.876-195.043.213-22.358-1.917-38.328-4.898-38.328-1.064 0-28.745 20.229-61.536 45.141-55.362 41.948-59.833 45.78-66.008 57.278-22.997 43.012-62.815 75.377-104.336 84.108-80.913 17.247-161.613-30.449-186.313-109.872-2.129-6.814-4.046-22.358-4.684-37.476-1.491-30.661 2.129-49.612 12.988-72.396 12.989-26.829 43.225-57.278 71.119-71.757 13.201-6.601 14.479-8.091 59.194-67.711 25.126-33.643 45.567-62.176 45.567-63.453 0-1.278-3.62-2.342-7.878-2.342-4.472 0-12.776-.426-18.738-.852-5.749-.426-18.738-.213-28.746.852z" />
    </g>
</svg>