<svg viewBox="0 0 1250 1250" width="100%" height="100%" xmlns="http://www.w3.org/2000/svg" fill-rule="evenodd"
    clip-rule="evenodd" stroke-linejoin="round" stroke-miterlimit="2">
    <path fill="none" d="M0 0h1250v1250H0z" />
    <clipPath id="prefix__a">
        <path d="M0 0h1250v1250H0z" />
    </clipPath>
    <g clip-path="url(#prefix__a)" fill="#e5e4e7" fill-rule="nonzero">
        <path
            d="M128.411 4.057c-23.424 7.879-39.82 24.488-47.06 47.061-3.408 11.073-3.621 39.608-3.621 473.803v462.091l5.324 9.37c2.981 5.324 8.731 11.499 12.777 13.842l7.453 4.471h1043.43l7.453-4.471c4.046-2.343 9.796-8.518 12.777-13.842l5.324-9.37V524.921c0-434.195-.213-462.73-3.621-473.803-4.897-15.332-16.396-30.664-28.96-38.543C1118.392-.841 1155.232.011 624.146.011 163.971.224 138.844.437 128.409 4.057zm830.061 153.746c26.193 5.75 48.126 26.831 54.94 53.024 1.917 7.027 2.343 55.578 1.917 184.197l-.639 174.616-5.537 11.712c-6.601 14.267-21.081 29.173-34.071 35.561-5.323 2.769-16.397 5.75-24.489 7.028-20.016 2.768-631.17 2.768-651.186 0-8.092-1.278-19.166-4.259-24.489-7.028-12.99-6.388-27.47-21.294-34.071-35.561l-5.537-11.712-.639-174.616c-.426-128.619 0-177.17 1.917-184.197 6.601-25.554 28.96-47.274 54.088-53.024 12.989-2.981 653.955-2.981 667.796 0zM295.786 778.326c15.971 8.092 27.683 30.877 24.915 48.339-2.981 18.1-12.564 30.451-29.812 38.117-30.877 13.628-66.439-10.647-65.8-44.719.638-36.2 38.543-58.56 70.697-41.737zm714.006 9.796l6.602 6.388-1.278 24.276c-1.491 29.173-4.472 35.987-15.971 39.395-5.537 1.703-62.18 2.129-186.114 1.703l-178.023-.639-5.536-5.11c-7.24-6.815-8.092-12.351-5.75-38.544 1.917-21.081 2.343-22.572 8.518-28.108l6.601-5.963h364.563l6.388 6.602zM155.456 1094.55V1250h939.088v-155.45H155.456z" />
    </g>
</svg>