<svg viewBox="0 0 1250 1250" xmlns="http://www.w3.org/2000/svg" fill-rule="evenodd" clip-rule="evenodd"
    stroke-linejoin="round" stroke-miterlimit="2">
    <path fill="none" d="M0 0h1250v1250H0z" />
    <clipPath id="prefix__a">
        <path d="M0 0h1250v1250H0z" />
    </clipPath>
    <g clip-path="url(#prefix__a)" fill="#e5e4e7">
        <path
            d="M1078.87 476.83c34.929 24.143 50.171 67.49 77.215 112.693 21.819 36.468 40.827 83.63 93.911 83.476-16.428 16.006-42.402 18.909-64.694 27.129-22.493 8.294-44.397 18.77-66.781 25.043-14.99-30.525-34.118-65.013-56.346-106.432-19.675-36.654-44.854-105.993-102.258-81.389v146.083c-34.417 8.771-69.145 28.163-100.171 33.391V347.442c62.25-25.644 130.011-47.583 189.908-70.954 2.366-.925 4.211-1.768 6.26-2.087 71.141-11.138 125.634 12.087 127.301 64.694 2.158 68.216-57.867 109.574-104.345 137.735zm-35.477-6.261c51.749-53.94 24.644-161.494-60.52-143.996-30.901 6.349-22.956 55.931-22.956 95.998-.002 33.338-1.663 64.293 2.087 89.736 31.781-15.501 59.155-18.563 81.389-41.738zM575.931 677.173v146.083c-33.457 11.064-66.388 22.651-98.084 35.477-4.869-120.35-.695-249.733-2.087-373.555 64.944-23.357 129.519-45.305 189.908-68.868 53.087-20.715 120.456 15.545 129.388 45.912 16.221 55.157-22.14 111.849-56.347 139.822-49.747 40.678-113.961 55.29-162.778 75.129zm106.432-156.518c-6.091-42.253-63.27-72.603-104.345-41.738-4.737 53.696-.793 116.071-2.087 173.213 58.164-9.245 116.716-60.132 106.432-131.475zM108.466 518.568c1.774-.384 1.968.814 2.087 2.087 7.005 94.334-9.199 223.488 0 321.383 1.957 20.835 8.383 40.519 18.782 54.259 15.226 20.118 93.841 54.727 116.866 14.608 9.412-16.401 4.174-54.651 4.174-83.476V568.654c30.905-14.312 67.405-23.027 98.084-37.565 4.869 120.346.695 249.731 2.087 373.556-52.563 19.109-102.847 36.99-156.517 56.346-16.742 6.037-34.036 16.601-50.086 18.782-57.703 7.836-107.48-14.612-125.214-47.999-41.302-77.749.922-272.749-14.608-375.642 36.009-11.294 70.193-24.414 104.345-37.564zM957.834 209.707c-234.879 86.525-469.229 173.528-707.459 256.689 0-83.478-.092-466.396-.092-466.396h707.551v209.707zM250.283 1040.29c234.878-86.525 469.229-173.528 707.459-256.689 0 83.478.092 466.396.092 466.396H250.283V1040.29z" />
    </g>
</svg>