<svg xmlns="http://www.w3.org/2000/svg" viewBox="0 0 576 512">
    <path fill="currentColor"
        d="M266.9 7.9C279-2.6 297-2.6 309.1 7.9l256 224c13.3 11.6 14.6 31.9 3 45.2s-31.9 14.6-45.2 3L288 74.5 53.1 280.1c-13.3 11.6-33.5 10.3-45.2-3s-10.3-33.5 3-45.2l256-224z" />
    <path fill="currentColor" opacity="0.60"
        d="M64 270.5l.1 201.5c0 22.1 17.9 40 40 40H184c22.1 0 40-17.9 40-40v-88.3c0-17.7 14.3-32 32-32h64c17.7 0 32 14.3 32 32V472c0 22.1 17.9 40 40 40h80.5c22.1 0 40-18 40-40.1l-.4-201.3L288 74.5l-224 196z" />
</svg>