<svg xmlns="http://www.w3.org/2000/svg" viewBox="0 0 512 512">
    <path fill="currentColor"
        d="M384 160L224 0v128c0 17.7 14.3 32 32 32h128zM176 352c-8.8 0-16 7.2-16 16v128c0 8.8 7.2 16 16 16s16-7.2 16-16v-32h16c30.9 0 56-25.1 56-56s-25.1-56-56-56h-32zm32 80h-16v-48h16c13.3 0 24 10.7 24 24s-10.7 24-24 24zm96-80c-8.8 0-16 7.2-16 16v128c0 8.8 7.2 16 16 16h32c26.5 0 48-21.5 48-48v-64c0-26.5-21.5-48-48-48h-32zm32 128h-16v-96h16c8.8 0 16 7.2 16 16v64c0 8.8-7.2 16-16 16zm80-112v128c0 8.8 7.2 16 16 16s16-7.2 16-16v-48h32c8.8 0 16-7.2 16-16s-7.2-16-16-16h-32v-32h32c8.8 0 16-7.2 16-16s-7.2-16-16-16h-48c-8.8 0-16 7.2-16 16z" />
    <path fill="currentColor" opacity="0.60"
        d="M0 64C0 28.7 28.7 0 64 0h160v128c0 17.7 14.3 32 32 32h128v144H176c-35.3 0-64 28.7-64 64v144H64c-35.3 0-64-28.7-64-64V64z" />
</svg>